# xmcd
#
# Track frame offsets:
#	150
#	50100
#	122610
#	135917
#	201120
#	225037
#
# Disc length: 3101 seconds
#
# Revision: 1
# Processed by: cddbd v1.4PL0 Copyright (c) Steve Scherf et al.
# Submitted via: audiograbber 1.82.01
#
DISCID=440c1b06
DTITLE=George Wassouf - Youghani Oum Kalthoum (2)
DYEAR=1900
DGENRE=
TTITLE0=Fakarouni
TTITLE1=Ana Fi Intazarak
TTITLE2=Habibi Yes3ed Aw Ato
TTITLE3=Siret El Hob
TTITLE4=Enta Fen Wel Hob Fen
TTITLE5=Houwa Sahih El Hawa Ghallab
EXTD=
EXTT0=
EXTT1=
EXTT2=
EXTT3=
EXTT4=
EXTT5=
PLAYORDER=
